<?xml version="1.0" encoding="utf-8"?>
<!-- Generator: Adobe Illustrator 25.0.0, SVG Export Plug-In . SVG Version: 6.00 Build 0)  -->
<svg version="1.1" id="Layer_1" xmlns="http://www.w3.org/2000/svg" xmlns:xlink="http://www.w3.org/1999/xlink" x="0px" y="0px"
	 viewBox="0 0 62.3 50.6" style="enable-background:new 0 0 62.3 50.6;" xml:space="preserve">
<style type="text/css">
	.st0{fill-rule:evenodd;clip-rule:evenodd;fill:#439BB8;}
	.st1{fill-rule:evenodd;clip-rule:evenodd;fill:#265F73;fill-opacity:0.56;}
	.st2{fill:#265F73;}
	.st3{fill-rule:evenodd;clip-rule:evenodd;fill:#FFFFFF;}
</style>
<path class="st0" d="M6.1,22.3L30.7,4.9c0.3-0.2,0.8-0.2,1.2,0l24.6,17.4c0.3,0.2,0.4,0.5,0.4,0.8v26.4c0,0.6-0.4,1-1,1H6.7
	c-0.6,0-1-0.4-1-1V23.2C5.7,22.8,5.9,22.5,6.1,22.3z"/>
<path class="st1" d="M31.8,4.8l24.6,17.5c0.3,0.2,0.4,0.5,0.4,0.8l0,1.8C50,18.7,40.9,14.9,31,14.9c-9.7,0-18.6,3.6-25.3,9.6l0-1.3
	c0-0.3,0.2-0.6,0.4-0.8L30.7,4.8C31,4.6,31.5,4.6,31.8,4.8z"/>
<path class="st2" d="M1.3,23.9c-0.4,0-0.8-0.2-1-0.5C-0.2,22.8,0,22,0.5,21.6L31.3,0l30.6,21.6c0.6,0.4,0.7,1.2,0.3,1.7
	c-0.4,0.6-1.2,0.7-1.7,0.3L31.2,3.1L2,23.7C1.8,23.8,1.5,23.9,1.3,23.9z"/>
<g>
	<path class="st3" d="M42.8,32.9h5.9c0.6,0,1,0.4,1,1V42c0,0.6-0.4,1-1,1h-5.9c-0.6,0-1-0.4-1-1v-8.1C41.8,33.4,42.2,32.9,42.8,32.9
		z"/>
	<path class="st2" d="M48.6,43.5h-5.9c-0.8,0-1.5-0.7-1.5-1.5v-8.1c0-0.8,0.7-1.5,1.5-1.5h5.9c0.8,0,1.5,0.7,1.5,1.5V42
		C50.1,42.9,49.5,43.5,48.6,43.5z M42.8,33.4c-0.3,0-0.5,0.2-0.5,0.5V42c0,0.3,0.2,0.5,0.5,0.5h5.9c0.3,0,0.5-0.2,0.5-0.5v-8.1
		c0-0.3-0.2-0.5-0.5-0.5H42.8z"/>
</g>
<g>
	<path class="st3" d="M28.3,18.1h5.9c0.6,0,1,0.4,1,1v8.1c0,0.6-0.4,1-1,1h-5.9c-0.6,0-1-0.4-1-1v-8.1
		C27.3,18.6,27.8,18.1,28.3,18.1z"/>
	<path class="st2" d="M34.2,28.8h-5.9c-0.8,0-1.5-0.7-1.5-1.5v-8.1c0-0.8,0.7-1.5,1.5-1.5h5.9c0.8,0,1.5,0.7,1.5,1.5v8.1
		C35.7,28.1,35,28.8,34.2,28.8z M28.3,18.6c-0.3,0-0.5,0.2-0.5,0.5v8.1c0,0.3,0.2,0.5,0.5,0.5h5.9c0.3,0,0.5-0.2,0.5-0.5v-8.1
		c0-0.3-0.2-0.5-0.5-0.5H28.3z"/>
</g>
<g>
	<path class="st3" d="M13.9,32.9h5.9c0.6,0,1,0.4,1,1V42c0,0.6-0.4,1-1,1h-5.9c-0.6,0-1-0.4-1-1v-8.1C12.9,33.4,13.3,32.9,13.9,32.9
		z"/>
	<path class="st2" d="M19.8,43.5h-5.9c-0.8,0-1.5-0.7-1.5-1.5v-8.1c0-0.8,0.7-1.5,1.5-1.5h5.9c0.8,0,1.5,0.7,1.5,1.5V42
		C21.3,42.9,20.6,43.5,19.8,43.5z M13.9,33.4c-0.3,0-0.5,0.2-0.5,0.5V42c0,0.3,0.2,0.5,0.5,0.5h5.9c0.3,0,0.5-0.2,0.5-0.5v-8.1
		c0-0.3-0.2-0.5-0.5-0.5H13.9z"/>
</g>
<g>
	<path class="st3" d="M27.8,32.8h7c0.6,0,1,0.4,1,1v15.3c0,0.6-0.4,1-1,1h-7c-0.6,0-1-0.4-1-1V33.8C26.8,33.2,27.2,32.8,27.8,32.8z"
		/>
	<path class="st2" d="M34.8,50.6h-7c-0.8,0-1.5-0.7-1.5-1.5V33.8c0-0.8,0.7-1.5,1.5-1.5h7c0.8,0,1.5,0.7,1.5,1.5v15.3
		C36.3,49.9,35.6,50.6,34.8,50.6z M27.8,33.3c-0.3,0-0.5,0.2-0.5,0.5v15.3c0,0.3,0.2,0.5,0.5,0.5h7c0.3,0,0.5-0.2,0.5-0.5V33.8
		c0-0.3-0.2-0.5-0.5-0.5H27.8z"/>
</g>
</svg>
